<svg width="24" height="24" viewBox="0 0 24 24" fill="none" xmlns="http://www.w3.org/2000/svg">
<path d="M6.1875 5.39062H17.8125C17.9156 5.39062 18 5.30625 18 5.20312V3.89062C18 3.7875 17.9156 3.70312 17.8125 3.70312H6.1875C6.08437 3.70312 6 3.7875 6 3.89062V5.20312C6 5.30625 6.08437 5.39062 6.1875 5.39062ZM17.8125 15.3281C17.9156 15.3281 18 15.2437 18 15.1406V13.8281C18 13.725 17.9156 13.6406 17.8125 13.6406H6.1875C6.08437 13.6406 6 13.725 6 13.8281V15.1406C6 15.2437 6.08437 15.3281 6.1875 15.3281H17.8125ZM21.1875 18.6094H2.8125C2.70937 18.6094 2.625 18.6938 2.625 18.7969V20.1094C2.625 20.2125 2.70937 20.2969 2.8125 20.2969H21.1875C21.2906 20.2969 21.375 20.2125 21.375 20.1094V18.7969C21.375 18.6938 21.2906 18.6094 21.1875 18.6094ZM21.1875 8.67188H2.8125C2.70937 8.67188 2.625 8.75625 2.625 8.85938V10.1719C2.625 10.275 2.70937 10.3594 2.8125 10.3594H21.1875C21.2906 10.3594 21.375 10.275 21.375 10.1719V8.85938C21.375 8.75625 21.2906 8.67188 21.1875 8.67188Z" fill="#222B45"/>
</svg>
