<svg width="24" height="24" viewBox="0 0 24 24" fill="none" xmlns="http://www.w3.org/2000/svg">
<path d="M21.1875 12H19.875C19.7719 12 19.6875 12.0844 19.6875 12.1875V19.6875H4.3125V4.3125H11.8125C11.9156 4.3125 12 4.22812 12 4.125V2.8125C12 2.70937 11.9156 2.625 11.8125 2.625H3.375C2.96016 2.625 2.625 2.96016 2.625 3.375V20.625C2.625 21.0398 2.96016 21.375 3.375 21.375H20.625C21.0398 21.375 21.375 21.0398 21.375 20.625V12.1875C21.375 12.0844 21.2906 12 21.1875 12Z" fill="#222B45"/>
<path d="M16.8182 3.44749L18.0429 4.67222L12.4363 10.2788C12.3634 10.3517 12.3634 10.471 12.4363 10.544L13.4307 11.5383C13.5036 11.6113 13.6229 11.6113 13.6959 11.5383L19.3024 5.93175L20.5305 7.1598C20.6415 7.27083 20.8304 7.20454 20.8487 7.05042L21.3425 2.84424C21.346 2.81599 21.343 2.78733 21.3337 2.76042C21.3244 2.73352 21.3091 2.70908 21.289 2.68896C21.2689 2.66883 21.2444 2.65356 21.2175 2.64428C21.1906 2.635 21.162 2.63197 21.1337 2.63542L16.9292 3.12763C16.7734 3.14752 16.7071 3.33645 16.8182 3.44749Z" fill="#222B45"/>
</svg>
