<svg width="24" height="24" viewBox="0 0 24 24" fill="none" xmlns="http://www.w3.org/2000/svg">
<path d="M21.1875 3.70312H9.5625C9.45937 3.70312 9.375 3.7875 9.375 3.89062V5.20312C9.375 5.30625 9.45937 5.39062 9.5625 5.39062H21.1875C21.2906 5.39062 21.375 5.30625 21.375 5.20312V3.89062C21.375 3.7875 21.2906 3.70312 21.1875 3.70312ZM21.1875 13.6406H9.5625C9.45937 13.6406 9.375 13.725 9.375 13.8281V15.1406C9.375 15.2437 9.45937 15.3281 9.5625 15.3281H21.1875C21.2906 15.3281 21.375 15.2437 21.375 15.1406V13.8281C21.375 13.725 21.2906 13.6406 21.1875 13.6406ZM21.1875 18.6094H2.8125C2.70937 18.6094 2.625 18.6938 2.625 18.7969V20.1094C2.625 20.2125 2.70937 20.2969 2.8125 20.2969H21.1875C21.2906 20.2969 21.375 20.2125 21.375 20.1094V18.7969C21.375 18.6938 21.2906 18.6094 21.1875 18.6094ZM21.1875 8.67188H2.8125C2.70937 8.67188 2.625 8.75625 2.625 8.85938V10.1719C2.625 10.275 2.70937 10.3594 2.8125 10.3594H21.1875C21.2906 10.3594 21.375 10.275 21.375 10.1719V8.85938C21.375 8.75625 21.2906 8.67188 21.1875 8.67188Z" fill="#222B45"/>
</svg>
