<svg width="24" height="24" viewBox="0 0 24 24" fill="none" xmlns="http://www.w3.org/2000/svg">
<path d="M19.3125 18.8438H4.6875C4.58437 18.8438 4.5 18.9234 4.5 19.0219V20.4469C4.5 20.5453 4.58437 20.625 4.6875 20.625H19.3125C19.4156 20.625 19.5 20.5453 19.5 20.4469V19.0219C19.5 18.9234 19.4156 18.8438 19.3125 18.8438ZM12 17.0625C13.6266 17.0625 15.1547 16.4273 16.3078 15.2766C17.4609 14.1258 18.0938 12.5953 18.0938 10.9688V3.65625C18.0938 3.50156 17.9672 3.375 17.8125 3.375H16.4062C16.2516 3.375 16.125 3.50156 16.125 3.65625V10.9688C16.125 13.2422 14.2734 15.0938 12 15.0938C9.72656 15.0938 7.875 13.2422 7.875 10.9688V3.65625C7.875 3.50156 7.74844 3.375 7.59375 3.375H6.1875C6.03281 3.375 5.90625 3.50156 5.90625 3.65625V10.9688C5.90625 12.5953 6.54141 14.1234 7.69219 15.2766C8.84297 16.4297 10.3734 17.0625 12 17.0625Z" fill="#222B45"/>
</svg>
