<svg width="24" height="24" viewBox="0 0 24 24" fill="none" xmlns="http://www.w3.org/2000/svg">
<path d="M17.9625 17.4445C18.9867 17.4445 19.8234 16.5961 19.8234 15.5578C19.8234 14.3039 17.9625 12.2578 17.9625 12.2578C17.9625 12.2578 16.1016 14.3039 16.1016 15.5578C16.1016 16.5961 16.9383 17.4445 17.9625 17.4445ZM9.12422 16.4109C9.29062 16.5773 9.56016 16.5773 9.72422 16.4109L15.7266 10.4109C15.893 10.2445 15.893 9.97498 15.7266 9.81092L9.72656 3.81092C9.7125 3.79685 9.69609 3.78279 9.67969 3.77107L7.84687 1.93826C7.80691 1.89881 7.75303 1.87669 7.69687 1.87669C7.64072 1.87669 7.58683 1.89881 7.54688 1.93826L6.42188 3.06326C6.38243 3.10322 6.36031 3.15711 6.36031 3.21326C6.36031 3.26941 6.38243 3.3233 6.42188 3.36326L7.99688 4.93826L3.12656 9.81092C2.96016 9.97732 2.96016 10.2469 3.12656 10.4109L9.12422 16.4109ZM9.42656 5.89685L13.6195 10.0898H5.23594L9.42656 5.89685ZM21.1875 19.125H2.8125C2.70937 19.125 2.625 19.2094 2.625 19.3125V21.1875C2.625 21.2906 2.70937 21.375 2.8125 21.375H21.1875C21.2906 21.375 21.375 21.2906 21.375 21.1875V19.3125C21.375 19.2094 21.2906 19.125 21.1875 19.125Z" fill="#222B45"/>
</svg>
