<svg width="24" height="24" viewBox="0 0 24 24" fill="none" xmlns="http://www.w3.org/2000/svg">
<path d="M18.7031 3.75H8.57812C8.475 3.75 8.39062 3.83437 8.39062 3.9375V5.4375C8.39062 5.54062 8.475 5.625 8.57812 5.625H12.825L9.16875 18.375H5.36719C5.26406 18.375 5.17969 18.4594 5.17969 18.5625V20.0625C5.17969 20.1656 5.26406 20.25 5.36719 20.25H15.4922C15.5953 20.25 15.6797 20.1656 15.6797 20.0625V18.5625C15.6797 18.4594 15.5953 18.375 15.4922 18.375H11.1187L14.775 5.625H18.7031C18.8062 5.625 18.8906 5.54062 18.8906 5.4375V3.9375C18.8906 3.83437 18.8062 3.75 18.7031 3.75Z" fill="#222B45"/>
</svg>
