<?xml version="1.0" encoding="utf-8"?>
<svg viewBox="0 0 32 32" xmlns="http://www.w3.org/2000/svg">
  <path d="M 15.341 20.954 L 14.319 20.954 C 14.239 20.954 14.171 21.021 14.171 21.099 L 14.171 22.275 L 2.212 22.275 L 2.212 10.313 L 14.174 10.313 L 14.174 11.486 C 14.174 11.567 14.242 11.632 14.32 11.632 L 15.342 11.632 C 15.422 11.632 15.488 11.568 15.488 11.486 L 15.488 9.583 C 15.488 9.261 15.228 9 14.907 9 L 1.483 9 C 1.161 9 0.9 9.261 0.9 9.583 L 0.9 23.004 C 0.9 23.326 1.161 23.587 1.483 23.587 L 14.905 23.587 C 15.226 23.587 15.487 23.326 15.487 23.004 L 15.487 21.099 C 15.487 21.02 15.421 20.954 15.341 20.954 Z M 15.695 16.173 L 12.998 14.046 C 12.897 13.965 12.751 14.039 12.751 14.167 L 12.751 15.609 L 6.788 15.609 C 6.704 15.609 6.635 15.678 6.635 15.762 L 6.635 16.825 C 6.635 16.91 6.704 16.977 6.788 16.977 L 12.751 16.977 L 12.751 18.421 C 12.751 18.549 12.9 18.62 12.998 18.539 L 15.695 16.414 C 15.712 16.399 15.725 16.38 15.736 16.36 C 15.746 16.339 15.751 16.315 15.751 16.294 C 15.751 16.269 15.746 16.248 15.736 16.228 C 15.725 16.208 15.712 16.186 15.695 16.173 Z" fill="#222B45" style=""/>
  <path d="M 30.879 21.061 L 29.847 21.061 C 29.767 21.061 29.698 21.129 29.698 21.21 L 29.698 22.395 L 17.625 22.395 L 17.625 10.319 L 29.701 10.319 L 29.701 11.504 C 29.701 11.585 29.769 11.651 29.848 11.651 L 30.88 11.651 C 30.96 11.651 31.027 11.587 31.027 11.504 L 31.027 9.583 C 31.027 9.258 30.765 8.994 30.439 8.994 L 16.889 8.994 C 16.563 8.994 16.3 9.258 16.3 9.583 L 16.3 23.132 C 16.3 23.457 16.563 23.72 16.889 23.72 L 30.438 23.72 C 30.763 23.72 31.026 23.457 31.026 23.132 L 31.026 21.21 C 31.026 21.127 30.959 21.061 30.879 21.061 Z M 31.236 16.236 L 28.514 14.088 C 28.412 14.007 28.264 14.081 28.264 14.211 L 28.264 15.666 L 22.244 15.666 C 22.16 15.666 22.09 15.735 22.09 15.82 L 22.09 16.895 C 22.09 16.979 22.16 17.047 22.244 17.047 L 28.264 17.047 L 28.264 18.503 C 28.264 18.634 28.414 18.706 28.514 18.623 L 31.236 16.478 C 31.254 16.463 31.267 16.445 31.278 16.424 C 31.287 16.403 31.293 16.379 31.293 16.358 C 31.293 16.332 31.287 16.311 31.278 16.29 C 31.267 16.269 31.254 16.25 31.236 16.236 Z" fill="#222B45" style="" transform="matrix(-1, 0, 0, -1, 47.592999, 32.714)"/>
</svg>