<svg width="24" height="24" viewBox="0 0 24 24" fill="none" xmlns="http://www.w3.org/2000/svg">
<path d="M21.5625 17.8125H7.875C7.77187 17.8125 7.6875 17.8969 7.6875 18V19.3125C7.6875 19.4156 7.77187 19.5 7.875 19.5H21.5625C21.6656 19.5 21.75 19.4156 21.75 19.3125V18C21.75 17.8969 21.6656 17.8125 21.5625 17.8125ZM21.5625 4.5H7.875C7.77187 4.5 7.6875 4.58438 7.6875 4.6875V6C7.6875 6.10313 7.77187 6.1875 7.875 6.1875H21.5625C21.6656 6.1875 21.75 6.10313 21.75 6V4.6875C21.75 4.58438 21.6656 4.5 21.5625 4.5ZM21.5625 11.1562H7.875C7.77187 11.1562 7.6875 11.2406 7.6875 11.3438V12.6562C7.6875 12.7594 7.77187 12.8438 7.875 12.8438H21.5625C21.6656 12.8438 21.75 12.7594 21.75 12.6562V11.3438C21.75 11.2406 21.6656 11.1562 21.5625 11.1562ZM5.0625 16.6875H2.34375C2.29219 16.6875 2.25 16.7297 2.25 16.7812V17.5781C2.25 17.6297 2.29219 17.6719 2.34375 17.6719H4.04062V18.1523H3.20391C3.15234 18.1523 3.11016 18.1945 3.11016 18.2461V19.043C3.11016 19.0945 3.15234 19.1367 3.20391 19.1367H4.04062V19.6406H2.34375C2.29219 19.6406 2.25 19.6828 2.25 19.7344V20.5312C2.25 20.5828 2.29219 20.625 2.34375 20.625H5.0625C5.11406 20.625 5.15625 20.5828 5.15625 20.5312V16.7812C5.15625 16.7297 5.11406 16.6875 5.0625 16.6875ZM2.34375 4.40625H3.23438V7.21875C3.23438 7.27031 3.27656 7.3125 3.32812 7.3125H4.26562C4.31719 7.3125 4.35938 7.27031 4.35938 7.21875V3.5625C4.35938 3.45937 4.275 3.375 4.17188 3.375H2.34375C2.29219 3.375 2.25 3.41719 2.25 3.46875V4.3125C2.25 4.36406 2.29219 4.40625 2.34375 4.40625ZM5.0625 10.0312H2.34375C2.29219 10.0312 2.25 10.0734 2.25 10.125V10.9688C2.25 11.0203 2.29219 11.0625 2.34375 11.0625H3.94687L2.29922 12.8836C2.26814 12.9185 2.25067 12.9634 2.25 13.0102V13.875C2.25 13.9266 2.29219 13.9688 2.34375 13.9688H5.0625C5.11406 13.9688 5.15625 13.9266 5.15625 13.875V13.0312C5.15625 12.9797 5.11406 12.9375 5.0625 12.9375H3.45938L5.10703 11.1164C5.13811 11.0815 5.15558 11.0366 5.15625 10.9898V10.125C5.15625 10.0734 5.11406 10.0312 5.0625 10.0312Z" fill="#222B45"/>
</svg>
