<svg width="24" height="24" viewBox="0 0 24 24" fill="none" xmlns="http://www.w3.org/2000/svg">
<path d="M21.675 14.6652L20.1398 13.3527C20.2125 12.9074 20.25 12.4527 20.25 11.9981C20.25 11.5434 20.2125 11.0887 20.1398 10.6434L21.675 9.33087C21.7908 9.23175 21.8737 9.09972 21.9126 8.95235C21.9515 8.80498 21.9447 8.64925 21.893 8.50587L21.8719 8.44493C21.4492 7.26375 20.8164 6.16877 20.0039 5.2129L19.9617 5.16368C19.8631 5.04779 19.7318 4.96448 19.5849 4.92473C19.4381 4.88499 19.2826 4.89067 19.1391 4.94103L17.2336 5.61837C16.5305 5.04181 15.7453 4.58712 14.8969 4.26837L14.5289 2.27618C14.5011 2.12628 14.4284 1.98838 14.3204 1.88079C14.2124 1.7732 14.0742 1.70102 13.9242 1.67384L13.8609 1.66212C12.6398 1.44181 11.3555 1.44181 10.1344 1.66212L10.0711 1.67384C9.92108 1.70102 9.78289 1.7732 9.67488 1.88079C9.56688 1.98838 9.49416 2.12628 9.4664 2.27618L9.09609 4.27775C8.25442 4.59656 7.47062 5.05101 6.77577 5.62306L4.85624 4.94103C4.71272 4.89027 4.55716 4.88438 4.41022 4.92415C4.26327 4.96392 4.13191 5.04747 4.03359 5.16368L3.9914 5.2129C3.17987 6.16944 2.54712 7.26424 2.12343 8.44493L2.10234 8.50587C1.99687 8.79884 2.08359 9.12697 2.32031 9.33087L3.87421 10.6574C3.80156 11.0981 3.7664 11.5481 3.7664 11.9957C3.7664 12.4457 3.80156 12.8957 3.87421 13.334L2.32031 14.6606C2.20451 14.7597 2.12164 14.8917 2.0827 15.0391C2.04377 15.1864 2.05062 15.3422 2.10234 15.4856L2.12343 15.5465C2.54765 16.7277 3.17577 17.8176 3.9914 18.7785L4.03359 18.8277C4.13215 18.9436 4.26352 19.027 4.41037 19.0667C4.55723 19.1064 4.71268 19.1008 4.85624 19.0504L6.77577 18.3684C7.47421 18.9426 8.25468 19.3973 9.09609 19.7137L9.4664 21.7152C9.49416 21.8651 9.56688 22.0031 9.67488 22.1106C9.78289 22.2182 9.92108 22.2904 10.0711 22.3176L10.1344 22.3293C11.3667 22.5508 12.6286 22.5508 13.8609 22.3293L13.9242 22.3176C14.0742 22.2904 14.2124 22.2182 14.3204 22.1106C14.4284 22.0031 14.5011 21.8651 14.5289 21.7152L14.8969 19.7231C15.745 19.4051 16.5345 18.949 17.2336 18.3731L19.1391 19.0504C19.2826 19.1012 19.4381 19.107 19.5851 19.0673C19.732 19.0275 19.8634 18.944 19.9617 18.8277L20.0039 18.7785C20.8195 17.8152 21.4476 16.7277 21.8719 15.5465L21.893 15.4856C21.9984 15.1973 21.9117 14.8692 21.675 14.6652ZM18.4758 10.9199C18.5344 11.2738 18.5648 11.6371 18.5648 12.0004C18.5648 12.3637 18.5344 12.727 18.4758 13.0809L18.3211 14.0207L20.0719 15.5184C19.8065 16.1298 19.4714 16.7087 19.0734 17.2434L16.8984 16.4723L16.1625 17.077C15.6023 17.5363 14.9789 17.8973 14.3039 18.1504L13.4109 18.4856L12.9914 20.759C12.3295 20.834 11.6612 20.834 10.9992 20.759L10.5797 18.4809L9.69374 18.141C9.02577 17.8879 8.40468 17.527 7.84921 17.0699L7.11327 16.4629L4.92421 17.241C4.52577 16.7043 4.19296 16.1254 3.92577 15.516L5.69531 14.0043L5.54296 13.0668C5.48671 12.7176 5.45624 12.3567 5.45624 12.0004C5.45624 11.6418 5.48437 11.2832 5.54296 10.934L5.69531 9.9965L3.92577 8.48478C4.19062 7.87306 4.52577 7.2965 4.92421 6.75978L7.11327 7.5379L7.84921 6.93087C8.40468 6.47384 9.02577 6.1129 9.69374 5.85978L10.582 5.52462L11.0016 3.2465C11.6601 3.1715 12.3328 3.1715 12.9937 3.2465L13.4133 5.51993L14.3062 5.85509C14.9789 6.10822 15.6047 6.46915 16.1648 6.92853L16.9008 7.53322L19.0758 6.76212C19.4742 7.29884 19.807 7.87775 20.0742 8.48712L18.3234 9.98478L18.4758 10.9199ZM12 7.64103C9.72187 7.64103 7.87499 9.4879 7.87499 11.766C7.87499 14.0442 9.72187 15.891 12 15.891C14.2781 15.891 16.125 14.0442 16.125 11.766C16.125 9.4879 14.2781 7.64103 12 7.64103ZM13.8562 13.6223C13.6128 13.8664 13.3234 14.0601 13.0049 14.192C12.6863 14.3239 12.3448 14.3916 12 14.391C11.2992 14.391 10.6406 14.1168 10.1437 13.6223C9.89958 13.3788 9.70596 13.0895 9.57403 12.7709C9.4421 12.4523 9.37446 12.1108 9.37499 11.766C9.37499 11.0652 9.64921 10.4067 10.1437 9.90978C10.6406 9.4129 11.2992 9.14103 12 9.14103C12.7008 9.14103 13.3594 9.4129 13.8562 9.90978C14.1004 10.1532 14.294 10.4426 14.426 10.7611C14.5579 11.0797 14.6255 11.4212 14.625 11.766C14.625 12.4668 14.3508 13.1254 13.8562 13.6223Z" fill="#222B45"/>
</svg>
