<svg width="24" height="24" viewBox="0 0 24 24" fill="none" xmlns="http://www.w3.org/2000/svg">
<path d="M22.3125 18.5625H1.6875C1.58437 18.5625 1.5 18.6469 1.5 18.75V20.0625C1.5 20.1656 1.58437 20.25 1.6875 20.25H22.3125C22.4156 20.25 22.5 20.1656 22.5 20.0625V18.75C22.5 18.6469 22.4156 18.5625 22.3125 18.5625ZM22.3125 3.75H1.6875C1.58437 3.75 1.5 3.83437 1.5 3.9375V5.25C1.5 5.35312 1.58437 5.4375 1.6875 5.4375H22.3125C22.4156 5.4375 22.5 5.35312 22.5 5.25V3.9375C22.5 3.83437 22.4156 3.75 22.3125 3.75ZM21.75 15.4688C21.9562 15.4688 22.125 15.3 22.125 15.0938V8.90625C22.125 8.7 21.9562 8.53125 21.75 8.53125H9.75C9.54375 8.53125 9.375 8.7 9.375 8.90625V15.0938C9.375 15.3 9.54375 15.4688 9.75 15.4688H21.75ZM11.0625 10.2188H20.4375V13.7812H11.0625V10.2188ZM1.875 15.1406C1.875 15.2437 1.95937 15.3281 2.0625 15.3281H7.3125C7.41563 15.3281 7.5 15.2437 7.5 15.1406V13.8281C7.5 13.725 7.41563 13.6406 7.3125 13.6406H2.0625C1.95937 13.6406 1.875 13.725 1.875 13.8281V15.1406ZM2.0625 10.3594H7.3125C7.41563 10.3594 7.5 10.275 7.5 10.1719V8.85938C7.5 8.75625 7.41563 8.67188 7.3125 8.67188H2.0625C1.95937 8.67188 1.875 8.75625 1.875 8.85938V10.1719C1.875 10.275 1.95937 10.3594 2.0625 10.3594Z" fill="#222B45"/>
</svg>
