<svg width="24" height="24" viewBox="0 0 24 24" fill="none" xmlns="http://www.w3.org/2000/svg">
<path fill-rule="evenodd" clip-rule="evenodd" d="M4 3C3.44772 3 3 3.44772 3 4V20C3 20.5523 3.44772 21 4 21H20C20.5523 21 21 20.5523 21 20V4C21 3.44772 20.5523 3 20 3H4ZM14.0551 7C13.6177 7 13.2311 7.28425 13.1006 7.70173L10.7968 15.0739L8.83915 10.5992C8.6799 10.2352 8.32029 10 7.92299 10H6.375C6.09886 10 5.875 10.2239 5.875 10.5C5.875 10.7761 6.09886 11 6.375 11H7.92299L10.2024 16.2101C10.462 16.8034 11.3187 16.7564 11.5119 16.1383L14.0551 8L17.625 8C17.9011 8 18.125 7.77614 18.125 7.5C18.125 7.22386 17.9011 7 17.625 7H14.0551Z" fill="#222B45"/>
</svg>
