<svg width="24" height="24" viewBox="0 0 24 24" fill="none" xmlns="http://www.w3.org/2000/svg">
<path d="M13.4529 15.5951C13.4177 15.5602 13.3701 15.5407 13.3205 15.5407C13.2709 15.5407 13.2233 15.5602 13.1881 15.5951L10.4647 18.3186C9.20371 19.5795 7.07559 19.7131 5.6834 18.3186C4.28887 16.924 4.42246 14.7983 5.6834 13.5373L8.40684 10.8139C8.47949 10.7412 8.47949 10.6217 8.40684 10.549L7.47402 9.61624C7.43878 9.58134 7.3912 9.56177 7.3416 9.56177C7.29201 9.56177 7.24442 9.58134 7.20918 9.61624L4.48574 12.3397C2.50293 14.3225 2.50293 17.5311 4.48574 19.5115C6.46856 21.492 9.67715 21.4944 11.6576 19.5115L14.3811 16.7881C14.4537 16.7155 14.4537 16.5959 14.3811 16.5233L13.4529 15.5951ZM19.5139 4.48577C17.5311 2.50295 14.3225 2.50295 12.342 4.48577L9.61621 7.2092C9.58132 7.24444 9.56174 7.29203 9.56174 7.34163C9.56174 7.39122 9.58132 7.43881 9.61621 7.47405L10.5467 8.40452C10.6193 8.47717 10.7389 8.47717 10.8115 8.40452L13.535 5.68108C14.7959 4.42014 16.924 4.28655 18.3162 5.68108C19.7107 7.07561 19.5772 9.20139 18.3162 10.4623L15.5928 13.1858C15.5579 13.221 15.5383 13.2686 15.5383 13.3182C15.5383 13.3678 15.5579 13.4154 15.5928 13.4506L16.5256 14.3834C16.5982 14.4561 16.7178 14.4561 16.7904 14.3834L19.5139 11.66C21.4943 9.67717 21.4943 6.46858 19.5139 4.48577ZM14.299 8.72561C14.2638 8.69072 14.2162 8.67114 14.1666 8.67114C14.117 8.67114 14.0694 8.69072 14.0342 8.72561L8.72559 14.0319C8.69069 14.0671 8.67112 14.1147 8.67112 14.1643C8.67112 14.2139 8.69069 14.2615 8.72559 14.2967L9.65371 15.2248C9.72637 15.2975 9.8459 15.2975 9.91856 15.2248L15.2248 9.91858C15.2975 9.84592 15.2975 9.72639 15.2248 9.65374L14.299 8.72561Z" fill="#222B45"/>
</svg>
